<svg width="81.000000" height="28.000000" viewBox="0 0 81 28" fill="none" xmlns="http://www.w3.org/2000/svg" xmlns:xlink="http://www.w3.org/1999/xlink">
	<desc>
			Created with Pixso.
	</desc>
	<defs/>
	<path id="Vector" d="M0 27.3918L0 0.303223L9.34316 0.303223C10.5077 0.295166 11.664 0.5 12.7556 0.907471C13.7897 1.29077 14.742 1.86768 15.5618 2.60791C16.3947 3.36816 17.057 4.29785 17.5046 5.33521C17.9523 6.37231 18.175 7.49316 18.158 8.62354C18.1698 9.74756 17.9445 10.8611 17.497 11.8914C17.0496 12.9214 16.39 13.845 15.5618 14.6008C14.7422 15.3411 13.7899 15.9182 12.7556 16.3013C11.6648 16.7087 10.5093 16.9138 9.34542 16.9065L4.25674 16.9065L4.25674 27.3862L0 27.3918ZM9.45604 12.8257C10.1017 12.8381 10.743 12.717 11.34 12.4697C11.8662 12.2485 12.3409 11.9199 12.7341 11.5051C13.1055 11.1106 13.3993 10.6489 13.5999 10.1448C13.7961 9.66455 13.8984 9.15063 13.9013 8.63159C13.8979 7.55151 13.4798 6.51465 12.7341 5.73633C12.3077 5.30127 11.7976 4.95801 11.2348 4.72705C10.672 4.49634 10.0684 4.38306 9.46056 4.39429L4.25674 4.39429L4.25674 12.8303L9.45604 12.8257Z" fill="#FFFFFF" fill-opacity="1.000000" fill-rule="nonzero"/>
	<path id="Vector" d="M21.4734 8.85376L21.4734 27.3918L25.6556 27.3918L25.6556 8.85376L21.4734 8.85376Z" fill="#FFFFFF" fill-opacity="1.000000" fill-rule="nonzero"/>
	<path id="Vector" d="M26.3611 2.83447C26.3674 3.2063 26.2989 3.57544 26.1598 3.91992C26.0208 4.2644 25.814 4.57739 25.5518 4.83984C25.2975 5.10889 24.9903 5.32178 24.6496 5.46484C24.3089 5.60815 23.9422 5.67871 23.573 5.67188L23.573 0.000732422C23.9422 -0.00585938 24.3088 0.0646973 24.6494 0.207764C24.9901 0.351074 25.2973 0.563965 25.5518 0.832764C25.8134 1.09473 26.0199 1.40723 26.1589 1.75098C26.2979 2.09497 26.3667 2.46338 26.3611 2.83447Z" fill="#35AF39" fill-opacity="1.000000" fill-rule="nonzero"/>
	<path id="Vector" d="M23.5696 0.000732422L23.5696 5.67529C23.1955 5.68384 22.8238 5.6145 22.4779 5.47119C22.132 5.32788 21.8195 5.11401 21.5603 4.84326C21.2969 4.58081 21.0891 4.26758 20.9494 3.92236C20.8097 3.57715 20.7411 3.20703 20.7475 2.83447C20.7422 2.46313 20.8114 2.09448 20.9511 1.75049C21.0907 1.40674 21.2979 1.09448 21.5603 0.832764C21.8199 0.562256 22.1324 0.348633 22.4782 0.205322C22.824 0.0622559 23.1956 -0.00756836 23.5696 0.000732422Z" fill="#35AF39" fill-opacity="1.000000" fill-rule="nonzero"/>
	<path id="Vector" d="M34.8486 17.9709L28.481 8.85376L33.3417 8.85376L37.3343 14.7175L37.4471 14.7175L41.1722 8.85376L46.2202 8.85376L39.7781 17.9709L46.3331 27.3918L41.3664 27.3918L37.3726 21.3386L37.2598 21.3386L33.2999 27.3918L28.3681 27.3918L34.8486 17.9709Z" fill="#FFFFFF" fill-opacity="1.000000" fill-rule="nonzero"/>
	<path id="Vector" d="M65.2893 22.9653C64.4948 24.4194 63.3552 25.6541 61.9717 26.5598C60.5419 27.5195 58.7843 27.9995 56.699 27.9995C55.3882 28.0132 54.088 27.7622 52.8757 27.2615C51.7354 26.7888 50.7032 26.0872 49.8426 25.1995C48.9783 24.302 48.2996 23.2415 47.8458 22.0789C47.3571 20.8191 47.1142 19.4768 47.1301 18.125C47.1227 16.8269 47.3523 15.5383 47.8074 14.323C48.2358 13.1638 48.8815 12.0974 49.7094 11.1821C50.5737 10.2405 51.6261 9.49268 52.7979 8.98755C53.9696 8.48242 55.2344 8.23145 56.5094 8.25073C57.9392 8.25073 59.214 8.49023 60.3338 8.96924C61.4151 9.42358 62.3856 10.1077 63.1784 10.9746C63.9808 11.8743 64.5898 12.9304 64.9676 14.0771C65.3926 15.3557 65.6028 16.6965 65.5895 18.0447L65.5895 18.3848C65.5654 18.4963 65.5526 18.6104 65.5511 18.7246C65.5266 18.8237 65.514 18.9253 65.5139 19.0273L51.3123 19.0273C51.3651 19.8328 51.5829 20.6184 51.9524 21.3352C52.2761 21.957 52.7174 22.5095 53.2516 22.9619C53.7568 23.3857 54.3391 23.7068 54.9663 23.9072C55.562 24.1045 56.1847 24.2065 56.8119 24.21C58.016 24.21 59.0082 23.9202 59.7886 23.3406C60.5665 22.76 61.2192 22.0273 61.7076 21.1868L65.2893 22.9653ZM61.4073 15.8149C61.3409 15.3792 61.2207 14.9534 61.0495 14.5476C60.85 14.0652 60.5555 13.6284 60.1837 13.2632C59.746 12.8401 59.2354 12.5005 58.6767 12.2612C58.0619 11.9839 57.315 11.8452 56.436 11.8452C55.2319 11.8452 54.1957 12.2046 53.3273 12.9231C52.4588 13.6418 51.8749 14.6057 51.5753 15.8149L61.4073 15.8149Z" fill="#FFFFFF" fill-opacity="1.000000" fill-rule="nonzero"/>
	<path id="Vector" d="M68.7547 8.85376L72.7055 8.85376L72.7055 11.6536L72.9313 11.6536C73.1688 11.1616 73.4819 10.7102 73.8591 10.3159C74.2469 9.89966 74.6912 9.54028 75.1787 9.24829C75.6682 8.95654 76.186 8.71582 76.7241 8.52954C77.226 8.34888 77.7544 8.25391 78.2875 8.24829C78.8074 8.23853 79.3264 8.29614 79.8317 8.41943C80.2394 8.52661 80.632 8.68506 81 8.89111L79.7944 12.7124C79.4992 12.5808 79.1891 12.4856 78.8711 12.429C78.4668 12.3606 78.0573 12.3289 77.6474 12.3337C77.0015 12.3262 76.3626 12.4697 75.7815 12.7532C75.2163 13.0322 74.7108 13.4194 74.2937 13.8936C73.8555 14.3945 73.5168 14.9751 73.2959 15.604C73.0551 16.2747 72.9339 16.9827 72.938 17.6953L72.938 27.3918L68.7614 27.3918L68.7547 8.85376Z" fill="#FFFFFF" fill-opacity="1.000000" fill-rule="nonzero"/>
</svg>
